<svg viewBox="0 0 116 36" fill="none" xmlns="http://www.w3.org/2000/svg">
<rect width="116" height="36" rx="12" fill="#FFF7ED"/>
<path fill-rule="evenodd" clip-rule="evenodd" d="M20.5896 13.315C20.1034 12.8288 20.1034 12.0407 20.5896 11.5545C21.0757 11.0684 21.8639 11.0684 22.35 11.5545L29.6948 18.8994C29.7334 18.8345 29.7815 18.6994 29.7815 18.4827C29.7815 18.4098 29.6877 18.1807 29.5561 17.8591C29.0741 16.6814 28.0844 14.2631 29.3288 13.7297C30.4963 13.2294 31.418 15.8017 32.094 17.688C32.3353 18.3614 32.5452 18.9473 32.7239 19.2748C32.7451 19.3138 32.7671 19.3539 32.7898 19.3951C33.4904 20.6695 34.7748 23.006 31.7054 26.4043C28.5367 29.9124 23.8969 28.2149 22.3126 26.6306C21.5814 25.8994 20.8879 25.1833 20.2668 24.5344C20.2618 24.5296 20.2568 24.5247 20.2518 24.5197L15.6107 19.8785C15.1246 19.3924 15.1246 18.6042 15.6107 18.1181C16.0968 17.632 16.885 17.632 17.3711 18.1181L20.8462 21.5932L21.0175 21.4382L15.8366 16.2573C15.3505 15.7712 15.3505 14.983 15.8366 14.4969C16.3227 14.0107 17.1109 14.0107 17.5971 14.4969L22.866 19.7657L23.0376 19.6104L17.4212 13.994C16.9351 13.5078 16.9351 12.7197 17.4212 12.2335C17.9073 11.7474 18.6955 11.7474 19.1816 12.2335L24.8861 17.938L25.0575 17.7829L20.5896 13.315Z" fill="currentColor"/>
<path d="M24.3975 8.9707C24.8189 8.95467 25.8212 9.11913 26.4588 9.9052C27.0965 10.6913 27.2717 11.657 27.2795 12.0416" stroke="#FACC15" stroke-width="1.19251" stroke-linecap="round"/>
<path d="M27.1709 7.29346C27.4316 7.28404 28.0519 7.38818 28.4474 7.88013C28.843 8.37208 28.9528 8.97561 28.9582 9.21588" stroke="#FACC15" stroke-width="1.19251" stroke-linecap="round"/>
<path d="M19.3389 26.6326C18.9211 26.6903 17.9074 26.6259 17.1951 25.9069C16.4827 25.1878 16.2127 24.2442 16.1668 23.8623" stroke="#FACC15" stroke-width="1.19251" stroke-linecap="round"/>
<path d="M16.7451 28.5764C16.4866 28.6116 15.8591 28.5694 15.4167 28.1191C14.9744 27.6687 14.8054 27.0791 14.7762 26.8405" stroke="#FACC15" stroke-width="1.19251" stroke-linecap="round"/>
<path d="M48.0312 20.6875V21.7539H38.3516V20.6875H42.5234V18.3789H39.418V13.2695H46.918V18.3789H43.8125V20.6875H48.0312ZM40.6953 14.3125V17.3594H45.6289V14.3125H40.6953ZM57.5469 12.4609V18.4609H56.2344V12.4609H57.5469ZM57.5469 18.9766V22.9141H50.5156V18.9766H57.5469ZM51.8047 20.0078V21.8594H56.2695V20.0078H51.8047ZM51.7695 12.9648C53.3984 12.9648 54.6172 13.9961 54.6172 15.4961C54.6172 16.9492 53.3984 18.0039 51.7695 18.0039C50.1289 18.0039 48.9102 16.9492 48.9102 15.4961C48.9102 13.9961 50.1289 12.9648 51.7695 12.9648ZM51.7695 14.0664C50.8438 14.0664 50.1758 14.6172 50.1875 15.4961C50.1758 16.3516 50.8438 16.9023 51.7695 16.9023C52.6836 16.9023 53.3398 16.3516 53.3398 15.4961C53.3398 14.6172 52.6836 14.0664 51.7695 14.0664ZM71.6211 20.6992V21.7656H61.9414V20.6992H66.1133V18.6367H63.0078V13.1523H64.3086V14.8867H69.2188V13.1523H70.5195V18.6367H67.4023V20.6992H71.6211ZM64.3086 17.582H69.2188V15.9297H64.3086V17.582ZM81.4062 12.4492V23.043H80.1523V17.6875H78.9805V22.5039H77.7617V12.6484H78.9805V16.6211H80.1523V12.4492H81.4062ZM74.082 13.668V19.2578C74.9961 19.2402 75.998 19.1641 77.1055 18.9414L77.2344 20.0781C75.8047 20.3359 74.5977 20.4062 73.4727 20.4062H72.7695V13.668H74.082ZM92.3398 18.3555V19.4102H88.1328V23.0312H86.8438V19.4102H82.6836V18.3555H92.3398ZM91.4492 13.0469V14.0781H88.2734C88.3496 15.2383 89.7441 16.3516 91.8359 16.6211L91.3672 17.6406C89.5625 17.3887 88.1562 16.5625 87.5117 15.4141C86.8672 16.5625 85.4609 17.3887 83.6797 17.6406L83.1875 16.6211C85.2676 16.3516 86.6621 15.2383 86.7617 14.0781H83.5742V13.0469H91.4492ZM101.902 12.4492V23.043H100.59V12.4492H101.902ZM98.7383 13.5742C98.7383 16.7266 97.5195 19.4102 93.8047 21.168L93.125 20.125C95.8965 18.8066 97.1855 17.0137 97.4141 14.6055H93.6641V13.5742H98.7383Z" fill="currentColor"/>
</svg>
