<svg viewBox="0 0 48 48" fill="none" xmlns="http://www.w3.org/2000/svg">
<circle cx="24" cy="24" r="24" fill="#FFF7ED"/>
<path fill-rule="evenodd" clip-rule="evenodd" d="M20.5896 19.315C20.1034 18.8288 20.1034 18.0407 20.5896 17.5545C21.0757 17.0684 21.8639 17.0684 22.35 17.5545L29.6948 24.8994C29.7334 24.8345 29.7815 24.6994 29.7815 24.4827C29.7815 24.4098 29.6877 24.1807 29.5561 23.8591C29.0741 22.6814 28.0844 20.2631 29.3288 19.7297C30.4963 19.2294 31.418 21.8017 32.094 23.688C32.3353 24.3614 32.5452 24.9473 32.7239 25.2748C32.7451 25.3138 32.7671 25.3539 32.7898 25.3951C33.4904 26.6695 34.7748 29.006 31.7054 32.4043C28.5367 35.9124 23.8969 34.2149 22.3126 32.6306C21.5814 31.8994 20.8879 31.1833 20.2668 30.5344C20.2618 30.5296 20.2568 30.5247 20.2518 30.5197L15.6107 25.8785C15.1246 25.3924 15.1246 24.6042 15.6107 24.1181C16.0968 23.632 16.885 23.632 17.3711 24.1181L20.8462 27.5932L21.0175 27.4382L15.8366 22.2573C15.3505 21.7712 15.3505 20.983 15.8366 20.4969C16.3227 20.0107 17.1109 20.0107 17.5971 20.4969L22.866 25.7657L23.0376 25.6104L17.4212 19.994C16.9351 19.5078 16.9351 18.7197 17.4212 18.2335C17.9073 17.7474 18.6955 17.7474 19.1816 18.2335L24.8861 23.938L25.0575 23.7829L20.5896 19.315Z" fill="currentColor"/>
<path d="M24.3975 14.9707C24.8189 14.9547 25.8212 15.1191 26.4588 15.9052C27.0965 16.6913 27.2717 17.657 27.2795 18.0416" stroke="#FACC15" stroke-width="1.19251" stroke-linecap="round"/>
<path d="M27.1709 13.2935C27.4316 13.284 28.0519 13.3882 28.4474 13.8801C28.843 14.3721 28.9528 14.9756 28.9582 15.2159" stroke="#FACC15" stroke-width="1.19251" stroke-linecap="round"/>
<path d="M19.3389 32.6326C18.9211 32.6903 17.9074 32.6259 17.1951 31.9069C16.4827 31.1878 16.2127 30.2442 16.1668 29.8623" stroke="#FACC15" stroke-width="1.19251" stroke-linecap="round"/>
<path d="M16.7451 34.5764C16.4866 34.6116 15.8591 34.5694 15.4167 34.1191C14.9744 33.6687 14.8054 33.0791 14.7762 32.8405" stroke="#FACC15" stroke-width="1.19251" stroke-linecap="round"/>
</svg>
