<svg width="89" height="22" viewBox="0 0 89 22" fill="none" xmlns="http://www.w3.org/2000/svg">
<path d="M2.69839 19.9139V13.8923C2.69839 12.375 3.17872 11.806 4.71578 11.806H16.6281C17.5167 11.806 18.141 12.2565 18.141 13.1336C18.141 14.0107 17.5647 14.4612 16.6281 14.4612H6.68515C6.51702 14.4612 6.44498 14.556 6.44498 14.722V15.5281H16.5079C17.4206 15.5281 18.021 15.931 18.021 16.8319C18.021 17.7328 17.4206 18.1358 16.5079 18.1358H6.42095V19.084C6.42095 19.25 6.49301 19.3212 6.66112 19.3212H16.9402C17.8529 19.3212 18.4533 19.7715 18.4533 20.6724C18.4533 21.5733 17.8529 22 16.9402 22H4.71578C3.17872 22 2.69839 21.4311 2.69839 19.9139ZM11.5365 2.22845V3.55604C11.5365 7.68104 7.33358 10.3836 2.19404 11.5216C1.23337 11.7349 0.34477 11.4504 0.0805879 10.4785C-0.207617 9.50647 0.296728 8.79527 1.28141 8.5345C4.35554 7.75217 7.88598 6.4957 7.88598 4.03018V3.76941C7.88598 3.43751 7.78991 3.29527 7.45367 3.29527H2.02593C1.01723 3.29527 0.368784 2.84483 0.368784 1.84913C0.368784 0.82975 1.01723 0.379311 2.02593 0.379311H9.39901C10.864 0.379311 11.5365 1.06681 11.5365 2.22845ZM14.2984 9.19829V1.70689C14.2984 0.592678 15.0909 0 16.2198 0C17.3485 0 18.141 0.592678 18.141 1.70689V3.67458H19.7982C20.8069 3.67458 21.5274 4.17242 21.5274 5.23923C21.5274 6.30604 20.8069 6.80389 19.7982 6.80389H18.141V9.19829C18.141 10.3125 17.3485 10.9289 16.2198 10.9289C15.0909 10.9289 14.2984 10.3125 14.2984 9.19829ZM38.3804 20.2457V1.75432C38.3804 0.616383 39.173 0 40.3018 0C41.4547 0 42.2231 0.616383 42.2231 1.75432V20.2457C42.2231 21.3837 41.4547 22 40.3018 22C39.173 22 38.3804 21.3837 38.3804 20.2457ZM35.5465 8.67674C35.5465 13.3944 33.5291 16.4763 29.2782 16.4763C25.0273 16.4763 23.0098 13.3944 23.0098 8.67674C23.0098 3.95906 25.0273 0.877158 29.2782 0.877158C33.5291 0.877158 35.5465 3.95906 35.5465 8.67674ZM29.2782 13.2996C31.1995 13.2996 31.7999 11.2371 31.7999 8.67674C31.7999 6.11639 31.1995 4.05389 29.2782 4.05389C27.3568 4.05389 26.7564 6.11639 26.7564 8.67674C26.7564 11.2371 27.3568 13.2996 29.2782 13.2996ZM60.6909 14.4612H50.5319C49.5712 14.4612 49.0429 14.0819 49.0429 13.1336C49.0429 12.1854 49.5712 11.806 50.5319 11.806H62.5162C64.0772 11.806 64.4855 12.1854 64.4855 13.7026V16.097C64.4855 17.638 63.9812 18.0884 62.4202 18.0884H52.8135C52.7174 18.0884 52.6454 18.1358 52.6454 18.2543V19.1788C52.6454 19.2974 52.7174 19.3212 52.8135 19.3212H63.4529C64.4136 19.3212 64.966 19.7241 64.966 20.6724C64.966 21.6207 64.4136 22 63.4529 22H51.0843C49.5232 22 49.0429 21.5495 49.0429 20.0087V17.4483C49.0429 15.9074 49.4993 15.4807 51.0602 15.4807H60.6909C60.811 15.4807 60.883 15.4333 60.883 15.3147V14.6272C60.883 14.5086 60.811 14.4612 60.6909 14.4612ZM57.833 9.67243C55.7916 10.0517 53.5099 10.1703 51.4685 10.1703H49.091C47.5059 10.1703 46.7134 9.41166 46.7134 7.84699V2.70259C46.7134 1.16164 47.5059 0.379311 49.091 0.379311H56.392C57.3526 0.379311 58.0011 0.900863 58.0011 1.84913C58.0011 2.79742 57.3526 3.31897 56.392 3.31897H50.7001C50.4598 3.31897 50.4118 3.39008 50.4118 3.62715V6.89872C50.4118 7.13579 50.4839 7.23062 50.724 7.23062H51.7328C53.6781 7.23062 55.8636 7.04096 57.4006 6.78018C58.2653 6.61424 59.0339 6.87501 59.2019 7.82328C59.394 8.79527 58.7456 9.50647 57.833 9.67243ZM60.6429 9.19829V1.70689C60.6429 0.592678 61.4354 0 62.5643 0C63.693 0 64.4855 0.592678 64.4855 1.70689V3.67458H66.1427C67.1514 3.67458 67.8719 4.17242 67.8719 5.23923C67.8719 6.30604 67.1514 6.80389 66.1427 6.80389H64.4855V9.19829C64.4855 10.3125 63.693 10.9289 62.5643 10.9289C61.4354 10.9289 60.6429 10.3125 60.6429 9.19829ZM86.8385 21.8578H75.3826C73.8215 21.8578 73.197 21.2889 73.197 19.7479V15.5043C73.197 13.9633 73.8215 13.4181 75.3826 13.4181H86.8385C88.3996 13.4181 89 13.9633 89 15.5043V19.7479C89 21.2889 88.3996 21.8578 86.8385 21.8578ZM78.7209 11.6638C77.1117 11.9246 75.7188 12.0668 73.9175 12.0668H72.5485C70.9154 12.0668 70.2189 11.3793 70.2189 9.83838V7.08837C70.2189 5.54742 70.9154 4.83622 72.5485 4.83622H75.4786C75.7188 4.83622 75.7908 4.76509 75.7908 4.52802V3.53234C75.7908 3.29527 75.7188 3.24784 75.4786 3.24784H71.9961C71.0356 3.24784 70.3391 2.77371 70.3391 1.84913C70.3391 0.900863 71.0356 0.42672 71.9961 0.42672H76.9196C78.5768 0.42672 79.2492 1.09053 79.2492 2.67888V5.28664C79.2492 6.87501 78.5768 7.56251 76.9196 7.56251H73.9656C73.7254 7.56251 73.6774 7.60992 73.6774 7.84699V9.03235C73.6774 9.2694 73.7254 9.31682 73.9656 9.31682H74.3978C75.6947 9.31682 76.9196 9.15088 78.2405 9.00863C79.1531 8.91381 79.9698 9.05605 80.1138 10.0043C80.2579 10.9526 79.6334 11.5216 78.7209 11.6638ZM80.8583 10.597V1.82543C80.8583 0.806031 81.4827 0.23707 82.5155 0.23707C83.5482 0.23707 84.1725 0.806031 84.1725 1.82543V4.59914H85.6617V1.61208C85.6617 0.592678 86.3102 0 87.3428 0C88.3755 0 89 0.592678 89 1.61208V10.6444C89 11.6638 88.3755 12.2328 87.3428 12.2328C86.3102 12.2328 85.6617 11.6638 85.6617 10.6444V7.39656H84.1725V10.597C84.1725 11.6164 83.5721 12.1854 82.5155 12.1854C81.4827 12.1854 80.8583 11.6164 80.8583 10.597ZM84.9171 16.263H77.2799C77.1357 16.263 77.0396 16.3578 77.0396 16.5V18.7759C77.0396 18.9182 77.1357 19.013 77.2799 19.013H84.9171C85.0613 19.013 85.1573 18.9182 85.1573 18.7759V16.5C85.1573 16.3578 85.0613 16.263 84.9171 16.263Z" fill="currentColor"/>
</svg>
