<svg viewBox="0 0 73 35" fill="none" xmlns="http://www.w3.org/2000/svg">
<g clip-path="url(#clip0_974_24550)">
<path d="M6.98278 23.9606V19.6802C6.98278 18.6017 7.31981 18.1972 8.39833 18.1972H16.7569C17.3804 18.1972 17.8185 18.5174 17.8185 19.1409C17.8185 19.7644 17.4141 20.0846 16.7569 20.0846H9.78019C9.66222 20.0846 9.61167 20.152 9.61167 20.27V20.843H16.6726C17.313 20.843 17.7343 21.1294 17.7343 21.7698C17.7343 22.4102 17.313 22.6967 16.6726 22.6967H9.59481V23.3707C9.59481 23.4887 9.64537 23.5393 9.76333 23.5393H16.9759C17.6163 23.5393 18.0376 23.8594 18.0376 24.4998C18.0376 25.1402 17.6163 25.4435 16.9759 25.4435H8.39833C7.31981 25.4435 6.98278 25.0391 6.98278 23.9606ZM13.1843 11.3891V12.3328C13.1843 15.265 10.2352 17.1861 6.62889 17.995C5.95481 18.1467 5.3313 17.9444 5.14593 17.2535C4.9437 16.5626 5.29759 16.057 5.98852 15.8717C8.14556 15.3156 10.6228 14.4224 10.6228 12.6698V12.4844C10.6228 12.2485 10.5554 12.1474 10.3194 12.1474H6.51093C5.80315 12.1474 5.34815 11.8272 5.34815 11.1194C5.34815 10.3948 5.80315 10.0746 6.51093 10.0746H11.6844C12.7124 10.0746 13.1843 10.5633 13.1843 11.3891ZM15.1222 16.3435V11.0183C15.1222 10.2263 15.6783 9.805 16.4704 9.805C17.2624 9.805 17.8185 10.2263 17.8185 11.0183V12.417H18.9813C19.6891 12.417 20.1946 12.7709 20.1946 13.5293C20.1946 14.2876 19.6891 14.6415 18.9813 14.6415H17.8185V16.3435C17.8185 17.1356 17.2624 17.5737 16.4704 17.5737C15.6783 17.5737 15.1222 17.1356 15.1222 16.3435ZM32.02 24.1965V11.052C32.02 10.2431 32.5761 9.805 33.3682 9.805C34.1771 9.805 34.7163 10.2431 34.7163 11.052V24.1965C34.7163 25.0054 34.1771 25.4435 33.3682 25.4435C32.5761 25.4435 32.02 25.0054 32.02 24.1965ZM30.0315 15.9728C30.0315 19.3263 28.6159 21.517 25.6332 21.517C22.6504 21.517 21.2348 19.3263 21.2348 15.9728C21.2348 12.6193 22.6504 10.4285 25.6332 10.4285C28.6159 10.4285 30.0315 12.6193 30.0315 15.9728ZM25.6332 19.2589C26.9813 19.2589 27.4026 17.7928 27.4026 15.9728C27.4026 14.1528 26.9813 12.6867 25.6332 12.6867C24.285 12.6867 23.8637 14.1528 23.8637 15.9728C23.8637 17.7928 24.285 19.2589 25.6332 19.2589ZM47.6747 20.0846H40.5464C39.8723 20.0846 39.5016 19.815 39.5016 19.1409C39.5016 18.4669 39.8723 18.1972 40.5464 18.1972H48.9555C50.0508 18.1972 50.3373 18.4669 50.3373 19.5454V21.2474C50.3373 22.3428 49.9834 22.663 48.8881 22.663H42.1473C42.0799 22.663 42.0294 22.6967 42.0294 22.7809V23.4381C42.0294 23.5224 42.0799 23.5393 42.1473 23.5393H49.6127C50.2868 23.5393 50.6744 23.8257 50.6744 24.4998C50.6744 25.1739 50.2868 25.4435 49.6127 25.4435H40.934C39.8386 25.4435 39.5016 25.1233 39.5016 24.028V22.208C39.5016 21.1126 39.8218 20.8093 40.9171 20.8093H47.6747C47.759 20.8093 47.8095 20.7756 47.8095 20.6913V20.2026C47.8095 20.1183 47.759 20.0846 47.6747 20.0846ZM45.6694 16.6806C44.237 16.9502 42.636 17.0344 41.2036 17.0344H39.5353C38.4231 17.0344 37.867 16.4952 37.867 15.383V11.7261C37.867 10.6307 38.4231 10.0746 39.5353 10.0746H44.6583C45.3323 10.0746 45.7873 10.4454 45.7873 11.1194C45.7873 11.7935 45.3323 12.1643 44.6583 12.1643H40.6644C40.4958 12.1643 40.4621 12.2148 40.4621 12.3833V14.7089C40.4621 14.8774 40.5127 14.9448 40.6812 14.9448H41.389C42.754 14.9448 44.2875 14.81 45.366 14.6246C45.9727 14.5067 46.512 14.692 46.6299 15.3661C46.7647 16.057 46.3097 16.5626 45.6694 16.6806ZM47.641 16.3435V11.0183C47.641 10.2263 48.1971 9.805 48.9892 9.805C49.7812 9.805 50.3373 10.2263 50.3373 11.0183V12.417H51.5001C52.2079 12.417 52.7134 12.7709 52.7134 13.5293C52.7134 14.2876 52.2079 14.6415 51.5001 14.6415H50.3373V16.3435C50.3373 17.1356 49.7812 17.5737 48.9892 17.5737C48.1971 17.5737 47.641 17.1356 47.641 16.3435ZM66.0218 25.3424H57.9835C56.8881 25.3424 56.4499 24.938 56.4499 23.8426V20.8261C56.4499 19.7307 56.8881 19.3431 57.9835 19.3431H66.0218C67.1172 19.3431 67.5385 19.7307 67.5385 20.8261V23.8426C67.5385 24.938 67.1172 25.3424 66.0218 25.3424ZM60.3259 18.0961C59.1968 18.2815 58.2194 18.3826 56.9555 18.3826H55.9949C54.849 18.3826 54.3603 17.8939 54.3603 16.7985V14.8437C54.3603 13.7483 54.849 13.2428 55.9949 13.2428H58.0509C58.2194 13.2428 58.2699 13.1922 58.2699 13.0237V12.3159C58.2699 12.1474 58.2194 12.1137 58.0509 12.1137H55.6073C54.9333 12.1137 54.4446 11.7767 54.4446 11.1194C54.4446 10.4454 54.9333 10.1083 55.6073 10.1083H59.062C60.2248 10.1083 60.6966 10.5802 60.6966 11.7093V13.563C60.6966 14.692 60.2248 15.1807 59.062 15.1807H56.9892C56.8207 15.1807 56.787 15.2144 56.787 15.383V16.2256C56.787 16.3941 56.8207 16.4278 56.9892 16.4278H57.2925C58.2025 16.4278 59.062 16.3098 59.9888 16.2087C60.6292 16.1413 61.2022 16.2424 61.3033 16.9165C61.4044 17.5906 60.9662 17.995 60.3259 18.0961ZM61.8257 17.3378V11.1026C61.8257 10.378 62.2638 9.97352 62.9885 9.97352C63.7131 9.97352 64.1512 10.378 64.1512 11.1026V13.0743H65.1961V10.9509C65.1961 10.2263 65.6511 9.805 66.3757 9.805C67.1003 9.805 67.5385 10.2263 67.5385 10.9509V17.3715C67.5385 18.0961 67.1003 18.5006 66.3757 18.5006C65.6511 18.5006 65.1961 18.0961 65.1961 17.3715V15.0628H64.1512V17.3378C64.1512 18.0624 63.7299 18.4669 62.9885 18.4669C62.2638 18.4669 61.8257 18.0624 61.8257 17.3378ZM64.6736 21.3654H59.3148C59.2136 21.3654 59.1462 21.4328 59.1462 21.5339V23.1517C59.1462 23.2528 59.2136 23.3202 59.3148 23.3202H64.6736C64.7748 23.3202 64.8422 23.2528 64.8422 23.1517V21.5339C64.8422 21.4328 64.7748 21.3654 64.6736 21.3654Z" fill="white"/>
</g>
<defs>
<clipPath id="clip0_974_24550">
<rect width="73" height="35" fill="white"/>
</clipPath>
</defs>
</svg>
