<svg viewBox="0 0 56 27" fill="none" xmlns="http://www.w3.org/2000/svg">
<g clip-path="url(#clip0_974_24555)">
<path d="M4.37349 18.4138V15.0077C4.37349 14.1495 4.64168 13.8277 5.49989 13.8277H12.151C12.6472 13.8277 12.9958 14.0825 12.9958 14.5786C12.9958 15.0748 12.674 15.3296 12.151 15.3296H6.59948C6.50561 15.3296 6.46538 15.3832 6.46538 15.4771V15.933H12.084C12.5935 15.933 12.9288 16.161 12.9288 16.6705C12.9288 17.1801 12.5935 17.408 12.084 17.408H6.45197V17.9444C6.45197 18.0383 6.4922 18.0785 6.58607 18.0785H12.3254C12.8349 18.0785 13.1702 18.3333 13.1702 18.8429C13.1702 19.3524 12.8349 19.5938 12.3254 19.5938H5.49989C4.64168 19.5938 4.37349 19.272 4.37349 18.4138ZM9.30821 8.41023V9.16117C9.30821 11.4944 6.96153 13.0231 4.09189 13.6668C3.55551 13.7875 3.05935 13.6265 2.91185 13.0768C2.75093 12.527 3.03254 12.1247 3.58233 11.9772C5.29875 11.5347 7.26995 10.824 7.26995 9.42936V9.28185C7.26995 9.09412 7.21632 9.01366 7.02858 9.01366H3.99802C3.43482 9.01366 3.07276 8.75888 3.07276 8.19568C3.07276 7.61907 3.43482 7.36429 3.99802 7.36429H8.11476C8.93274 7.36429 9.30821 7.75316 9.30821 8.41023ZM10.8503 12.3526V8.11522C10.8503 7.48497 11.2928 7.14973 11.9231 7.14973C12.5533 7.14973 12.9958 7.48497 12.9958 8.11522V9.22822H13.9211C14.4843 9.22822 14.8866 9.50982 14.8866 10.1132C14.8866 10.7167 14.4843 10.9983 13.9211 10.9983H12.9958V12.3526C12.9958 12.9829 12.5533 13.3315 11.9231 13.3315C11.2928 13.3315 10.8503 12.9829 10.8503 12.3526ZM24.2964 18.6015V8.14204C24.2964 7.49838 24.7389 7.14973 25.3692 7.14973C26.0128 7.14973 26.4419 7.49838 26.4419 8.14204V18.6015C26.4419 19.2452 26.0128 19.5938 25.3692 19.5938C24.7389 19.5938 24.2964 19.2452 24.2964 18.6015ZM22.7141 12.0576C22.7141 14.7261 21.5877 16.4694 19.2142 16.4694C16.8407 16.4694 15.7143 14.7261 15.7143 12.0576C15.7143 9.38913 16.8407 7.64589 19.2142 7.64589C21.5877 7.64589 22.7141 9.38913 22.7141 12.0576ZM19.2142 14.6725C20.287 14.6725 20.6222 13.5059 20.6222 12.0576C20.6222 10.6094 20.287 9.44277 19.2142 9.44277C18.1414 9.44277 17.8062 10.6094 17.8062 12.0576C17.8062 13.5059 18.1414 14.6725 19.2142 14.6725ZM36.7534 15.3296H31.0811C30.5447 15.3296 30.2497 15.115 30.2497 14.5786C30.2497 14.0422 30.5447 13.8277 31.0811 13.8277H37.7725C38.6441 13.8277 38.8721 14.0422 38.8721 14.9005V16.2548C38.8721 17.1264 38.5905 17.3812 37.7189 17.3812H32.355C32.3014 17.3812 32.2612 17.408 32.2612 17.4751V17.9981C32.2612 18.0651 32.3014 18.0785 32.355 18.0785H38.2955C38.8318 18.0785 39.1403 18.3065 39.1403 18.8429C39.1403 19.3792 38.8318 19.5938 38.2955 19.5938H31.3895C30.5179 19.5938 30.2497 19.339 30.2497 18.4674V17.0192C30.2497 16.1475 30.5045 15.9062 31.3761 15.9062H36.7534C36.8204 15.9062 36.8606 15.8794 36.8606 15.8123V15.4234C36.8606 15.3564 36.8204 15.3296 36.7534 15.3296ZM35.1576 12.6208C34.0178 12.8354 32.7439 12.9024 31.6041 12.9024H30.2766C29.3915 12.9024 28.949 12.4733 28.949 11.5883V8.67842C28.949 7.8068 29.3915 7.36429 30.2766 7.36429H34.3531C34.8894 7.36429 35.2515 7.6593 35.2515 8.19568C35.2515 8.73206 34.8894 9.02707 34.3531 9.02707H31.175C31.0409 9.02707 31.0141 9.0673 31.0141 9.2014V11.0519C31.0141 11.186 31.0543 11.2396 31.1884 11.2396H31.7516C32.8378 11.2396 34.058 11.1324 34.9163 10.9849C35.399 10.891 35.8281 11.0385 35.922 11.5749C36.0293 12.1247 35.6672 12.527 35.1576 12.6208ZM36.7265 12.3526V8.11522C36.7265 7.48497 37.1691 7.14973 37.7993 7.14973C38.4296 7.14973 38.8721 7.48497 38.8721 8.11522V9.22822H39.7973C40.3605 9.22822 40.7628 9.50982 40.7628 10.1132C40.7628 10.7167 40.3605 10.9983 39.7973 10.9983H38.8721V12.3526C38.8721 12.9829 38.4296 13.3315 37.7993 13.3315C37.1691 13.3315 36.7265 12.9829 36.7265 12.3526ZM51.3527 19.5133H44.9564C44.0847 19.5133 43.7361 19.1915 43.7361 18.3199V15.9196C43.7361 15.048 44.0847 14.7395 44.9564 14.7395H51.3527C52.2243 14.7395 52.5596 15.048 52.5596 15.9196V18.3199C52.5596 19.1915 52.2243 19.5133 51.3527 19.5133ZM46.8203 13.7472C45.9218 13.8947 45.1441 13.9752 44.1384 13.9752H43.374C42.4622 13.9752 42.0733 13.5863 42.0733 12.7147V11.1592C42.0733 10.2876 42.4622 9.88528 43.374 9.88528H45.01C45.1441 9.88528 45.1843 9.84505 45.1843 9.71096V9.14776C45.1843 9.01366 45.1441 8.98684 45.01 8.98684H43.0656C42.5292 8.98684 42.1403 8.71865 42.1403 8.19568C42.1403 7.6593 42.5292 7.39111 43.0656 7.39111H45.8146C46.7398 7.39111 47.1153 7.76657 47.1153 8.66501V10.1401C47.1153 11.0385 46.7398 11.4274 45.8146 11.4274H44.1652C44.0311 11.4274 44.0043 11.4542 44.0043 11.5883V12.2588C44.0043 12.3929 44.0311 12.4197 44.1652 12.4197H44.4066C45.1307 12.4197 45.8146 12.3258 46.5521 12.2454C47.0617 12.1917 47.5176 12.2722 47.598 12.8086C47.6785 13.3449 47.3298 13.6668 46.8203 13.7472ZM48.0137 13.1438V8.18227C48.0137 7.60566 48.3624 7.28383 48.939 7.28383C49.5156 7.28383 49.8642 7.60566 49.8642 8.18227V9.75119H50.6956V8.06158C50.6956 7.48497 51.0577 7.14973 51.6343 7.14973C52.2109 7.14973 52.5596 7.48497 52.5596 8.06158V13.1706C52.5596 13.7472 52.2109 14.0691 51.6343 14.0691C51.0577 14.0691 50.6956 13.7472 50.6956 13.1706V11.3335H49.8642V13.1438C49.8642 13.7204 49.529 14.0422 48.939 14.0422C48.3624 14.0422 48.0137 13.7204 48.0137 13.1438ZM50.2799 16.3487H46.0157C45.9352 16.3487 45.8816 16.4023 45.8816 16.4828V17.7701C45.8816 17.8506 45.9352 17.9042 46.0157 17.9042H50.2799C50.3604 17.9042 50.414 17.8506 50.414 17.7701V16.4828C50.414 16.4023 50.3604 16.3487 50.2799 16.3487Z" fill="currentColor"/>
</g>
<defs>
<clipPath id="clip0_974_24555">
<rect width="56" height="27" fill="white"/>
</clipPath>
</defs>
</svg>
